<svg width="800" height="712" viewBox="0 0 800 712" fill="none" xmlns="http://www.w3.org/2000/svg">
<g clip-path="url(#clip0_27_1360)">
<path d="M732.469 413.919V375.653C732.469 293.791 666.106 227.428 584.244 227.428H215.758C133.895 227.428 67.5328 293.791 67.5328 375.653V413.92C67.4797 414.903 67.4531 415.892 67.4531 416.889C67.4531 447.506 92.2734 472.327 122.891 472.327C153.291 472.327 177.963 447.855 178.314 417.539C178.664 447.855 203.338 472.327 233.738 472.327C264.138 472.327 288.809 447.855 289.161 417.539C289.511 447.855 314.184 472.327 344.584 472.327C374.984 472.327 399.656 447.855 400.008 417.539C400.358 447.855 425.031 472.327 455.431 472.327C485.831 472.327 510.503 447.855 510.855 417.539C511.205 447.855 535.878 472.327 566.278 472.327C596.678 472.327 621.35 447.855 621.702 417.539C622.052 447.855 646.725 472.327 677.125 472.327C707.744 472.327 732.563 447.506 732.563 416.889C732.55 415.892 732.52 414.903 732.469 413.919Z" fill="#CEE8FA"/>
<path d="M778.947 669.534H753.519V578.934C753.519 567.309 744.094 557.881 732.466 557.881C732.072 557.881 731.689 557.919 731.302 557.941C730.967 557.927 730.639 557.891 730.3 557.891H581.723C570.095 557.891 560.67 567.319 560.67 578.944C560.67 590.569 570.095 599.997 581.723 599.997H711.414V669.536H88.5859V599.997H463.642C475.269 599.997 484.695 590.569 484.695 578.944C484.695 567.319 475.27 557.891 463.642 557.891H88.5859V485.225C98.9125 490.43 110.561 493.381 122.891 493.381C144.617 493.381 164.339 484.167 178.311 469.444C192.283 484.166 212.008 493.381 233.734 493.381C255.461 493.381 275.183 484.167 289.155 469.444C303.127 484.166 322.852 493.381 344.578 493.381C366.306 493.381 386.027 484.17 400.002 469.444C413.973 484.17 433.697 493.381 455.425 493.381C477.152 493.381 496.873 484.167 510.845 469.444C524.817 484.166 544.542 493.381 566.269 493.381C587.995 493.381 607.717 484.167 621.692 469.444C635.664 484.166 655.387 493.381 677.114 493.381C719.291 493.381 753.605 459.066 753.605 416.889C753.605 415.72 753.577 414.558 753.522 413.403V375.656C753.522 282.316 677.584 206.378 584.244 206.378H421.053V143.192C421.053 131.567 411.628 122.139 400 122.139C387.455 122.139 372.498 115.292 371.636 95.9875C371.598 95.1406 371.58 94.2906 371.58 93.436C371.58 73.2016 382.72 54.5047 400 44.6297C417.28 54.5016 428.42 73.2 428.42 93.436C428.42 94.2906 428.402 95.1406 428.364 95.9875C427.841 107.605 436.83 117.444 448.447 117.969C460.064 118.539 469.902 109.503 470.427 97.886C470.494 96.411 470.525 94.9281 470.525 93.436C470.525 53.0922 445.222 16.2438 407.562 1.74376C402.694 -0.132806 397.302 -0.132806 392.431 1.74376C354.777 16.2453 329.473 53.0938 329.473 93.436C329.473 94.9281 329.508 96.411 329.572 97.8766C331.109 132.269 353.216 153.706 378.947 161.216V206.375H215.758C122.417 206.375 46.4797 282.313 46.4797 375.653V413.403C46.4266 414.559 46.3969 415.72 46.3969 416.888C46.3969 417.961 46.4344 419.027 46.4797 420.089V669.531H21.0531C9.425 669.531 0 678.959 0 690.584C0 702.209 9.425 711.638 21.0531 711.638H67.0031C67.1797 711.642 67.3547 711.666 67.5313 711.666H732.469C732.648 711.666 732.82 711.642 732.997 711.638H778.948C790.577 711.638 800.002 702.209 800.002 690.584C800 678.959 790.575 669.534 778.947 669.534ZM88.5859 375.655C88.5859 305.53 145.636 248.483 215.758 248.483H584.242C654.366 248.483 711.416 305.533 711.416 375.655V413.92C711.416 414.295 711.427 414.666 711.445 415.041C711.48 415.653 711.495 416.27 711.495 416.889C711.495 435.852 696.07 451.277 677.109 451.277C658.375 451.277 642.956 436.034 642.739 417.297C642.606 405.764 633.219 396.486 621.686 396.486C610.153 396.486 600.769 405.764 600.633 417.297C600.416 436.031 584.997 451.277 566.262 451.277C547.528 451.277 532.106 436.034 531.892 417.297C531.759 405.764 522.372 396.486 510.839 396.486C499.306 396.486 489.922 405.764 489.786 417.297C489.569 436.031 474.152 451.277 455.416 451.277C436.678 451.277 421.259 436.034 421.045 417.297C420.912 405.764 411.525 396.486 399.992 396.486C388.459 396.486 379.075 405.764 378.939 417.297C378.722 436.031 363.303 451.277 344.569 451.277C325.834 451.277 310.416 436.034 310.198 417.297C310.066 405.764 300.681 396.486 289.145 396.486C277.612 396.486 268.228 405.764 268.092 417.297C267.875 436.031 252.456 451.277 233.722 451.277C214.988 451.277 199.566 436.034 199.352 417.297C199.219 405.764 189.831 396.486 178.298 396.486C166.766 396.486 157.381 405.764 157.245 417.297C157.028 436.031 141.611 451.277 122.875 451.277C104.456 451.277 89.4156 436.708 88.5703 418.494V413.924V375.656L88.5859 375.655Z" fill="#2D527C"/>
</g>
<defs>
<clipPath id="clip0_27_1360">
<rect width="800" height="712" fill="white"/>
</clipPath>
</defs>
</svg>
